<?xml version="1.0" encoding="utf-8"?>
<!-- Generator: Adobe Illustrator 22.0.0, SVG Export Plug-In . SVG Version: 6.00 Build 0)  -->
<svg version="1.1" id="Layer_1" xmlns="http://www.w3.org/2000/svg" xmlns:xlink="http://www.w3.org/1999/xlink" x="0px" y="0px"
	 viewBox="0 0 1366 768" style="enable-background:new 0 0 1366 768;" xml:space="preserve">
<style type="text/css">
	.st0{fill:#FF6B79;}
	.st1{fill:#253A45;}
	.st2{fill:#7C9BA5;}
	.st3{fill:#1A2B32;}
	.st4{fill:#455D68;}
	.st5{fill:#F9FBFC;}
</style>
<g>
	<g>
		<g id="XMLID_7_">
			<g>
				<path class="st0" d="M876.8,445c0,2.6-0.1,5.2-0.3,7.8h0c-16.6-10.4-69-31.4-69-31.4s-18.2-15.5-28.8-29.9
					c1.3-4.9,3.7-15.9,5.8-26.2c0.3-1.4,0.6-2.8,0.9-4.2c0.8-0.1,1.5-0.3,2.2-0.4c11.4-2.5,16.1-9.3,17.6-19.4
					C848.4,363.9,876.8,401.9,876.8,445z"/>
				<path class="st1" d="M850.5,444.2c1.2,0.9,20.7,15.9,21.6,18.8c0.9,2.8-6.9,28.9-11.6,36.5c-0.1,0.2-0.3,0.4-0.4,0.6
					c-14.7,23-38.3,42.1-67.4,54.6c14.3-16.2,21.7-42.8,21.7-42.8l-9-31.9l20.6-4.8l4.3-23.2c-4.6-12.8-15.3-21.7-15.3-21.7
					c-2.3-3.1-4.8-6.1-7.5-8.9c0,0,52.4,21,69,31.4h0c-0.1,1.3-0.2,2.7-0.4,4L850.5,444.2z"/>
				<path class="st2" d="M850.5,444.2l25.5,12.5c-1.8,15.2-7.2,29.6-15.5,42.7c4.6-7.6,12.5-33.7,11.6-36.5
					C871.2,460.2,851.7,445.2,850.5,444.2z"/>
				<path class="st3" d="M834.4,267c12.8,3.9,28.4,15,27.8,27.5c0,0-3.1-6.3-11.4-15C843.1,271.4,835.3,267.5,834.4,267z"/>
				<path class="st1" d="M844.7,318.8c-1.4,0.7-46.5,21.7-132.9,21.7V304c28.8,0,55.4-4.2,72-11.1c15.9-6.6,23.5-12.7,23.6-15
					c0.1-2.3-10.6-4.2-10.6-4.2l-0.2,0c-0.6-4.6-1.4-9.6-2.2-14.7c-0.1-0.6-0.2-1.3-0.3-1.9l2.4-0.1c71,4.7,78.3,35.7,63.6,53.8
					c-8.7,10.7-23.3,21.5-54.8,28.5c-0.8,0.2-1.6,0.3-2.3,0.5c-4.3,0.9-8.9,1.8-13.9,2.5c-19.9,3.1-45.1,4.9-77.3,4.9v-3.3
					C790.4,344.1,825,332,844.7,318.8z M862.1,294.5c0.6-12.5-15-23.6-27.8-27.5c0,0-0.1,0-0.1,0c0,0,0,0,0.1,0
					c0.9,0.5,8.7,4.4,16.4,12.5C859,288.1,862.1,294.5,862.1,294.5z"/>
				<path class="st3" d="M822.4,471.5L822.4,471.5c3.3-12.1,5.2-20.3,5.2-20.3s-4.8-10.4-12.6-20.9c0,0,10.7,8.9,15.3,21.7
					l-4.3,23.2l-20.6,4.8l9,31.9c0,0-7.4,26.7-21.7,42.8c-2.4,1-4.9,2-7.4,3c10-11.3,18.9-31.2,25.9-50.8
					c-0.1-0.3-11.4-28.4-11.4-28.4l6.6-2L822.4,471.5z"/>
				<path class="st1" d="M807.5,506.8c-0.4,0.2-5.9,3.8-18.9-3c-13.8-7.1-13.8-38.8-13.8-38.8c0.3,27.5-6.8,76.5-15.9,100.5
					c-0.5,0.1-1.1,0.2-1.6,0.4c4.7-20.1,12.1-79.1,14.1-123.7c0.7-14.9,0.7-28.2-0.1-38c3.9-5.4,6.7-10.1,7.4-12.9
					c10.6,14.4,28.8,29.9,28.8,29.9c2.7,2.8,5.2,5.9,7.5,8.9c7.7,10.5,12.6,20.9,12.6,20.9s-1.9,8.2-5.2,20.3h0l-15.9,4.9
					l-25.7-37.1c0.7,1.3,12.2,21.4,19.1,39.1c0,0,11.3,28.1,11.4,28.4c-7,19.6-15.9,39.5-25.9,50.8l0,0c-1.5,0.6-3.1,1.1-4.6,1.7
					C789.3,547.3,799.4,530.1,807.5,506.8z"/>
				<path class="st3" d="M711.8,340.6c86.4,0,131.5-21.1,132.9-21.7c-19.7,13.2-54.3,25.3-132.9,25.3L711.8,340.6L711.8,340.6z"/>
				<path class="st3" d="M796.8,273.8c0,0,10.8,1.8,10.6,4.2c-0.1,2.3-7.7,8.4-23.6,15c-16.6,6.9-43.2,11.1-72,11.1v-3.5
					c65.8,0,85.6-20.1,85.6-20.1c-0.2-2.1-0.4-4.3-0.7-6.6L796.8,273.8z"/>
				<path class="st3" d="M780.8,439.2l25.7,37.1l-6.6,2C793,460.6,781.5,440.5,780.8,439.2z"/>
				<path class="st2" d="M805.2,341.2c-1.4,10-6.2,16.9-17.6,19.4c0,0,8.7-6.7,10.7-9.3c4.7-6,4.7-11.3,4.7-11.3
					c0.8-0.2,1.6-0.3,2.3-0.5C805.3,340.1,805.3,340.6,805.2,341.2z"/>
				<path class="st1" d="M788.6,503.9c13,6.7,18.5,3.2,18.9,3c-8.1,23.2-18.2,40.5-26.7,52.5c-7,2.5-14.3,4.6-21.9,6.3
					c9.1-24,16.2-73,15.9-100.5C774.8,465.1,774.8,496.7,788.6,503.9z"/>
				<path class="st3" d="M803,340c0,0,0,5.3-4.7,11.3c-2,2.6-10.7,9.3-10.7,9.3c-0.7,0.1-1.4,0.3-2.2,0.4c1.4-6.6,2.5-12.4,3.2-15.7
					c0.4-1.8,0.6-2.8,0.6-2.8C794.1,341.7,798.7,340.9,803,340z"/>
				<path class="st4" d="M721.4,266.8c41.2-1.4,65.1-11.6,71.8-14.8c0.2,1.1,0.4,2.3,0.6,3.4c-7.4,4.5-18.1,7.7-31.1,10.2
					c0,0,13.7,3,31.8-6.5c0.9,5.1,1.6,10.1,2.2,14.7c0.3,2.3,0.5,4.5,0.7,6.6c0,0-19.7,20.1-85.6,20.1V267
					C715.1,267,718.3,266.9,721.4,266.8z"/>
				<path class="st1" d="M794.1,257.2c0.1,0.6,0.2,1.3,0.3,1.9c-18.1,9.4-31.8,6.5-31.8,6.5c13-2.5,23.8-5.7,31.1-10.2
					C793.9,256,794,256.6,794.1,257.2z"/>
				<path class="st3" d="M792.4,247.5c0.3,1.5,0.6,3,0.8,4.5c-6.6,3.3-30.6,13.4-71.8,14.8C765.2,262.3,781.4,253.4,792.4,247.5z"/>
				<path class="st1" d="M765.1,182.6c0.5,0.5,9.2,8.2,11.2,16.2c2.1,8.3,7.9,37,7.9,37l-3.5-39.1
					C780.8,196.8,777.8,189.4,765.1,182.6z M783.4,193.7c1.3,14.9,5.5,35,9,53.8c-10.9,6-27.2,14.8-71,19.3
					c-3.1,0.1-6.3,0.2-9.5,0.2v-73.9c29.6,0,31.7-17.4,31.7-17.4c-6.2,4.4-12.8,8.3-31.7,8.3v-2.3c3.9,0.2,9.8,0.1,16.6-1.9
					c7.8-2.3,13.4-6,16.7-8.5c5.5-0.2,12.4,0,25.8,9.7C776.8,185.1,780.8,189.9,783.4,193.7z"/>
				<path class="st3" d="M789.1,342.5c0,0-0.2,1-0.6,2.8c0,0-4.6,11.3-8,22.2c-4.3,1.9-8.6,2.1-20.7,2.3
					c-15.7,0.3-20.1,3.4-26.3,3.6c-6.2,0.2-13-7.2-21.7-7.2v-18.8C744.1,347.4,769.3,345.6,789.1,342.5z"/>
				<path class="st2" d="M788.6,345.3c-0.6,3.3-1.8,9.2-3.2,15.7c-0.3,1.4-0.6,2.8-0.9,4.2c-1.4,0.9-2.7,1.7-3.9,2.2
					C784,356.6,788.6,345.3,788.6,345.3z"/>
				<path class="st4" d="M780.8,196.8l3.5,39.1c0,0-5.8-28.7-7.9-37c-2.1-8-10.7-15.8-11.2-16.2
					C777.8,189.4,780.8,196.8,780.8,196.8z"/>
				<path class="st5" d="M780.6,367.4c1.3-0.6,2.5-1.3,3.9-2.2c-2.2,10.3-4.5,21.3-5.8,26.2c-0.7,2.8-3.5,7.5-7.4,12.9
					c-2.7,3.7-5.8,7.8-9.3,11.9c-6.5,7.7-13.8,15.5-20.3,21.2c1.1-1.1,11-11.1,19.7-24.6c9.1-14.3,13.8-21.9,16.1-33.9
					C778.1,375.6,779.3,371.6,780.6,367.4z"/>
				<path class="st2" d="M725,447.3c-5.2,1.2-10.6,1.4-13.2,1.4v-27.1c7,0,15.3-5.1,15.9-5.4c-0.4,0-5.2,0.6-15.9,0.6v-7.6
					c14.1,0,27.5-1.9,27.5-1.9c-7.2-0.1-18.7-3.1-20.5-3c-1.8,0.1-7,3.6-7,3.6v-15.1c5.9,0,8.5-2.3,9.7-4.5c7.4-1.6,8.2-6.5,8.2-6.5
					c-1.3,1.7-2.9,3-7.2,2.8c0,0-3.9,5.4-10.7,5.4v-24c8.7,0,15.5,7.4,21.7,7.2s10.6-3.3,26.3-3.6c12.1-0.2,16.5-0.4,20.7-2.3
					c-1.3,4.1-2.5,8.2-3.1,11.5c-2.3,12-6.9,19.6-16.1,33.9c-8.6,13.5-18.6,23.5-19.7,24.6c-0.1,0-0.1,0.1-0.1,0.1
					c-4.2,3.7-7.9,6.5-10.8,7.8C729,446.2,727,446.8,725,447.3z M730.5,382c6,1.5,13.1,11.5,14.1,19.3c0.1,1.5,0.1,2.4,0.1,2.4
					c0-0.8,0-1.6-0.1-2.4c-0.2-2.9-0.7-8-2.1-12C740.7,384.3,732.9,382.5,730.5,382z"/>
				<path class="st5" d="M771.3,404.3c0.9,9.7,0.8,23,0.1,38c-0.7,4.8-1.6,9.5-2.6,13.7c-3.2,14.1-7.1,24-7.1,24
					c-7.3-10.1-17.7-19-25.6-25c-2.9-2.2-5.5-4-7.4-5.3c14.4-4.5,22.6-15.9,33.4-33.5C765.4,412.1,768.6,408,771.3,404.3z"/>
				<path class="st2" d="M768.8,456c1-4.2,1.9-8.9,2.6-13.7c-2,44.6-9.4,103.6-14.1,123.7c-3,0.7-6.1,1.3-9.1,1.8
					C757.8,541.1,768.5,458.6,768.8,456z"/>
				<path class="st5" d="M761.7,480c0,0,3.9-9.9,7.1-24c-0.3,2.6-11,85.1-20.6,111.8c-3.2,0.5-6.4,1-9.6,1.4c0,0-4.2-42.4-5.6-58.4
					c-1.4-16-9-36.5-9-36.5l7-13.2l2-2.4C733,458.8,750.6,469.6,761.7,480z"/>
				<path class="st1" d="M741.7,437.4c6.5-5.7,13.8-13.5,20.3-21.2c-10.7,17.6-18.9,28.9-33.4,33.5c-2.1-1.4-3.5-2.3-3.7-2.4
					c2-0.5,4-1.1,5.8-1.9C733.7,444,737.5,441.2,741.7,437.4C741.7,437.5,741.7,437.5,741.7,437.4z"/>
				<path class="st1" d="M742.4,389.3c1.4,4,1.9,9,2.1,12c-1-7.9-8.1-17.8-14.1-19.3C732.9,382.5,740.7,384.3,742.4,389.3z"/>
				<path class="st3" d="M761.7,480c-11.1-10.4-28.7-21.2-28.7-21.2l3.1-3.8C744,460.9,754.4,469.8,761.7,480z"/>
				<path class="st3" d="M743.6,175.7c0,0-2.1,17.4-31.7,17.4V184C730.8,184,737.4,180.1,743.6,175.7z"/>
				<path class="st3" d="M738.5,569.2c-1.6,0.2-3.3,0.4-5,0.6c0,0-2.1-45.4-4.7-63.4c-2.6-18.1-8.5-32.5-8.5-32.5l10.6-12.7l-7,13.2
					c0,0,7.6,20.5,9,36.5C734.3,526.8,738.5,569.2,738.5,569.2z"/>
				<path class="st1" d="M736.1,455l-3.1,3.8l-2,2.4l-10.6,12.7h-8.5v-21.8c6.5,0,12-0.8,16.8-2.3C730.6,451,733.2,452.8,736.1,455z
					"/>
				<path class="st1" d="M733.6,569.7c-1.2,0.1-2.4,0.2-3.6,0.3l0-0.3c1-18.8-2.9-60.1-2.9-60.1s-0.4,50.7-7.5,61
					c-2.5,0.1-5,0.1-7.6,0.1v-97.1h8.5c0,0,5.9,14.4,8.5,32.5C731.5,524.4,733.6,569.7,733.6,569.7z"/>
				<path class="st1" d="M739.3,407.3c0,0-13.4,1.9-27.5,1.9v-1.3c0,0,5.2-3.4,7-3.6C720.6,404.2,732.1,407.2,739.3,407.3z"/>
				<path class="st2" d="M727,509.6c0,0,4,41.3,2.9,60.1l0,0.3c-3.5,0.3-7,0.5-10.5,0.6C726.6,560.3,727,509.6,727,509.6z"/>
				<path class="st3" d="M729.8,381.9c0,0-0.8,4.9-8.2,6.5c1-1.9,1-3.6,1-3.6C726.8,384.9,728.5,383.6,729.8,381.9z"/>
				<path class="st3" d="M725,447.3c0.2,0.1,1.5,1,3.6,2.4c-4.8,1.5-10.3,2.3-16.8,2.3v-3.2C714.3,448.7,719.8,448.5,725,447.3z"/>
				<path class="st2" d="M711.8,416.8c10.6,0,15.5-0.6,15.9-0.6c-0.5,0.3-8.9,5.4-15.9,5.4V416.8L711.8,416.8z"/>
				<path class="st3" d="M721.6,388.3c-1.2,2.2-3.9,4.5-9.7,4.5v-2.7c6.8,0,10.7-5.4,10.7-5.4S722.6,386.4,721.6,388.3z"/>
			</g>
		</g>
		<g id="XMLID_6_">
			<g>
				<path class="st0" d="M546.9,445c0,2.6,0.1,5.2,0.3,7.8h0c16.6-10.4,69-31.4,69-31.4s18.2-15.5,28.8-29.9
					c-1.3-4.9-3.7-15.9-5.8-26.2c-0.3-1.4-0.6-2.8-0.9-4.2c-0.8-0.1-1.5-0.3-2.2-0.4c-11.4-2.5-16.1-9.3-17.6-19.4
					C575.2,363.9,546.9,401.9,546.9,445z"/>
				<path class="st1" d="M573.2,444.2c-1.2,0.9-20.7,15.9-21.6,18.8c-0.9,2.8,6.9,28.9,11.6,36.5c0.1,0.2,0.3,0.4,0.4,0.6
					c14.7,23,38.3,42.1,67.4,54.6c-14.3-16.2-21.7-42.8-21.7-42.8l9-31.9l-20.6-4.8l-4.3-23.2c4.6-12.8,15.3-21.7,15.3-21.7
					c2.3-3.1,4.8-6.1,7.5-8.9c0,0-52.4,21-69,31.4h0c0.1,1.3,0.2,2.7,0.4,4L573.2,444.2z"/>
				<path class="st2" d="M573.2,444.2l-25.5,12.5c1.8,15.2,7.2,29.6,15.5,42.7c-4.6-7.6-12.5-33.7-11.6-36.5
					C552.5,460.2,571.9,445.2,573.2,444.2z"/>
				<path class="st3" d="M589.3,267c-12.8,3.9-28.4,15-27.8,27.5c0,0,3.1-6.3,11.4-15C580.6,271.4,588.4,267.5,589.3,267z"/>
				<path class="st1" d="M629.2,259.1c0.1-0.6,0.2-1.3,0.3-1.9l-2.4-0.1c-71,4.7-78.3,35.7-63.6,53.8c8.7,10.7,23.3,21.5,54.8,28.5
					c0.8,0.2,1.6,0.3,2.3,0.5c4.3,0.9,8.9,1.8,13.9,2.5c19.9,3.1,45.1,4.9,77.3,4.9v-3.3c-78.5,0-113.2-12.1-132.9-25.3
					c1.4,0.7,46.5,21.7,132.9,21.7V304c-28.8,0-55.4-4.2-72-11.1c-15.9-6.6-23.5-12.7-23.6-15c-0.1-2.3,10.6-4.2,10.6-4.2l0.2,0
					C627.6,269.2,628.4,264.2,629.2,259.1z M561.5,294.5c-0.6-12.5,15-23.6,27.8-27.5c0,0,0.1,0,0.1,0c0,0,0,0-0.1,0
					c-0.9,0.5-8.7,4.4-16.4,12.5C564.6,288.1,561.5,294.5,561.5,294.5z"/>
				<path class="st3" d="M601.3,471.5L601.3,471.5c-3.3-12.1-5.2-20.3-5.2-20.3s4.8-10.4,12.6-20.9c0,0-10.7,8.9-15.3,21.7l4.3,23.2
					l20.6,4.8l-9,31.9c0,0,7.4,26.7,21.7,42.8c2.4,1,4.9,2,7.4,3c-10-11.3-18.9-31.2-25.9-50.8c0.1-0.3,11.4-28.4,11.4-28.4l-6.6-2
					L601.3,471.5z"/>
				<path class="st1" d="M642.9,439.2c-0.7,1.3-12.2,21.4-19.1,39.1c0,0-11.3,28.1-11.4,28.4c7,19.6,15.9,39.5,25.9,50.8l0,0
					c1.5,0.6,3.1,1.1,4.6,1.7c-8.5-12-18.6-29.3-26.7-52.5c0.4,0.2,5.9,3.8,18.9-3c13.8-7.1,13.8-38.8,13.8-38.8
					c-0.3,27.5,6.8,76.5,15.9,100.5c0.5,0.1,1.1,0.2,1.6,0.4c-4.7-20.1-12.1-79.1-14.1-123.7c-0.7-14.9-0.7-28.2,0.1-38
					c-3.9-5.4-6.7-10.1-7.4-12.9c-10.6,14.4-28.8,29.9-28.8,29.9c-2.7,2.8-5.2,5.9-7.5,8.9c-7.7,10.5-12.6,20.9-12.6,20.9
					s1.9,8.2,5.2,20.3h0l15.9,4.9L642.9,439.2z"/>
				<path class="st3" d="M711.8,340.6c-86.4,0-131.5-21.1-132.9-21.7c19.7,13.2,54.4,25.3,132.9,25.3V340.6z"/>
				<path class="st3" d="M626.8,273.8c0,0-10.8,1.8-10.6,4.2c0.1,2.3,7.7,8.4,23.6,15c16.6,6.9,43.2,11.1,72,11.1v-3.5
					c-65.8,0-85.6-20.1-85.6-20.1c0.2-2.1,0.4-4.3,0.7-6.6L626.8,273.8z"/>
				<path class="st3" d="M642.9,439.2l-25.7,37.1l6.6,2C630.7,460.6,642.2,440.5,642.9,439.2z"/>
				<path class="st2" d="M618.5,341.2c1.4,10,6.2,16.9,17.6,19.4c0,0-8.7-6.7-10.7-9.3c-4.7-6-4.7-11.3-4.7-11.3
					c-0.8-0.2-1.6-0.3-2.3-0.5C618.3,340.1,618.4,340.6,618.5,341.2z"/>
				<path class="st1" d="M635.1,503.9c-13,6.7-18.5,3.2-18.9,3c8.1,23.2,18.2,40.5,26.7,52.5c7,2.5,14.3,4.6,21.9,6.3
					c-9.1-24-16.2-73-15.9-100.5C648.9,465.1,648.9,496.7,635.1,503.9z"/>
				<path class="st3" d="M620.6,340c0,0,0,5.3,4.7,11.3c2,2.6,10.7,9.3,10.7,9.3c0.7,0.1,1.4,0.3,2.2,0.4
					c-1.4-6.6-2.5-12.4-3.2-15.7c-0.4-1.8-0.6-2.8-0.6-2.8C629.6,341.7,625,340.9,620.6,340z"/>
				<path class="st4" d="M702.3,266.8c-41.2-1.4-65.1-11.6-71.8-14.8c-0.2,1.1-0.4,2.3-0.6,3.4c7.4,4.5,18.1,7.7,31.1,10.2
					c0,0-13.7,3-31.8-6.5c-0.9,5.1-1.6,10.1-2.2,14.7c-0.3,2.3-0.5,4.5-0.7,6.6c0,0,19.7,20.1,85.6,20.1V267
					C708.6,267,705.4,266.9,702.3,266.8z"/>
				<path class="st1" d="M629.6,257.2c-0.1,0.6-0.2,1.3-0.3,1.9c18.1,9.4,31.8,6.5,31.8,6.5c-13-2.5-23.8-5.7-31.1-10.2
					C629.8,256,629.7,256.6,629.6,257.2z"/>
				<path class="st3" d="M631.3,247.5c-0.3,1.5-0.6,3-0.8,4.5c6.6,3.3,30.6,13.4,71.8,14.8C658.5,262.3,642.2,253.4,631.3,247.5z"/>
				<path class="st1" d="M658.6,182.6c-0.5,0.5-9.2,8.2-11.2,16.2c-2.1,8.3-7.9,37-7.9,37l3.5-39.1
					C642.9,196.8,645.8,189.4,658.6,182.6z M640.3,193.7c-1.3,14.9-5.5,35-9,53.8c10.9,6,27.2,14.8,71,19.3c3.1,0.1,6.3,0.2,9.5,0.2
					v-73.9c-29.6,0-31.7-17.4-31.7-17.4c6.2,4.4,12.8,8.3,31.7,8.3v-2.3c-3.9,0.2-9.8,0.1-16.6-1.9c-7.8-2.3-13.4-6-16.7-8.5
					c-5.5-0.2-12.4,0-25.8,9.7C646.8,185.1,642.9,189.9,640.3,193.7z"/>
				<path class="st3" d="M634.5,342.5c0,0,0.2,1,0.6,2.8c0,0,4.6,11.3,8,22.2c4.3,1.9,8.6,2.1,20.7,2.3c15.7,0.3,20.1,3.4,26.3,3.6
					c6.2,0.2,13-7.2,21.7-7.2v-18.8C679.6,347.4,654.4,345.6,634.5,342.5z"/>
				<path class="st2" d="M635.1,345.3c0.6,3.3,1.8,9.2,3.2,15.7c0.3,1.4,0.6,2.8,0.9,4.2c1.4,0.9,2.7,1.7,3.9,2.2
					C639.7,356.6,635.1,345.3,635.1,345.3z"/>
				<path class="st4" d="M642.9,196.8l-3.5,39.1c0,0,5.8-28.7,7.9-37c2.1-8,10.7-15.8,11.2-16.2
					C645.8,189.4,642.9,196.8,642.9,196.8z"/>
				<path class="st5" d="M643.1,367.4c-1.3-0.6-2.5-1.3-3.9-2.2c2.2,10.3,4.5,21.3,5.8,26.2c0.7,2.8,3.5,7.5,7.4,12.9
					c2.7,3.7,5.8,7.8,9.3,11.9c6.5,7.7,13.8,15.5,20.3,21.2c-1.1-1.1-11-11.1-19.7-24.6c-9.1-14.3-13.8-21.9-16.1-33.9
					C645.6,375.6,644.4,371.6,643.1,367.4z"/>
				<path class="st2" d="M693.2,382c-6,1.5-13.1,11.5-14.1,19.3c-0.1,1.5-0.1,2.4-0.1,2.4c0-0.8,0-1.6,0.1-2.4c0.2-2.9,0.7-8,2.1-12
					C683,384.3,690.8,382.5,693.2,382z M698.7,447.3c5.2,1.2,10.6,1.4,13.2,1.4v-27.1c-7,0-15.3-5.1-15.9-5.4
					c0.4,0,5.2,0.6,15.9,0.6v-7.6c-14.1,0-27.5-1.9-27.5-1.9c7.2-0.1,18.7-3.1,20.5-3c1.8,0.1,7,3.6,7,3.6v-15.1
					c-5.9,0-8.5-2.3-9.7-4.5c-7.4-1.6-8.2-6.5-8.2-6.5c1.3,1.7,2.9,3,7.2,2.8c0,0,3.9,5.4,10.7,5.4v-24c-8.7,0-15.5,7.4-21.7,7.2
					s-10.6-3.3-26.3-3.6c-12.1-0.2-16.5-0.4-20.7-2.3c1.3,4.1,2.5,8.2,3.1,11.5c2.3,12,6.9,19.6,16.1,33.9
					c8.6,13.5,18.6,23.5,19.7,24.6c0.1,0,0.1,0.1,0.1,0.1c4.2,3.7,7.9,6.5,10.8,7.8C694.6,446.2,696.6,446.8,698.7,447.3z"/>
				<path class="st5" d="M652.4,404.3c-0.9,9.7-0.8,23-0.1,38c0.7,4.8,1.6,9.5,2.6,13.7c3.2,14.1,7.1,24,7.1,24
					c7.3-10.1,17.7-19,25.6-25c2.9-2.2,5.5-4,7.4-5.3c-14.4-4.5-22.6-15.9-33.4-33.5C658.3,412.1,655.1,408,652.4,404.3z"/>
				<path class="st2" d="M654.9,456c-1-4.2-1.9-8.9-2.6-13.7c2,44.6,9.4,103.6,14.1,123.7c3,0.7,6.1,1.3,9.1,1.8
					C665.9,541.1,655.2,458.6,654.9,456z"/>
				<path class="st5" d="M662,480c0,0-3.9-9.9-7.1-24c0.3,2.6,11,85.1,20.6,111.8c3.2,0.5,6.4,1,9.6,1.4c0,0,4.2-42.4,5.6-58.4
					c1.4-16,9-36.5,9-36.5l-7-13.2l-2-2.4C690.7,458.8,673.1,469.6,662,480z"/>
				<path class="st1" d="M681.9,437.4c-6.5-5.7-13.8-13.5-20.3-21.2c10.7,17.6,18.9,28.9,33.4,33.5c2.1-1.4,3.5-2.3,3.7-2.4
					c-2-0.5-4-1.1-5.8-1.9C689.9,444,686.2,441.2,681.9,437.4C682,437.5,682,437.5,681.9,437.4z"/>
				<path class="st1" d="M681.2,389.3c-1.4,4-1.9,9-2.1,12c1-7.9,8.1-17.8,14.1-19.3C690.8,382.5,683,384.3,681.2,389.3z"/>
				<path class="st3" d="M662,480c11.1-10.4,28.7-21.2,28.7-21.2l-3.1-3.8C679.7,460.9,669.3,469.8,662,480z"/>
				<path class="st3" d="M680.1,175.7c0,0,2.1,17.4,31.7,17.4V184C692.9,184,686.3,180.1,680.1,175.7z"/>
				<path class="st3" d="M685.1,569.2c1.6,0.2,3.3,0.4,5,0.6c0,0,2.1-45.4,4.7-63.4c2.6-18.1,8.5-32.5,8.5-32.5l-10.6-12.7l7,13.2
					c0,0-7.6,20.5-9,36.5C689.4,526.8,685.1,569.2,685.1,569.2z"/>
				<path class="st1" d="M687.6,455l3.1,3.8l2,2.4l10.6,12.7h8.5v-21.8c-6.5,0-12-0.8-16.8-2.3C693.1,451,690.5,452.8,687.6,455z"/>
				<path class="st1" d="M690.1,569.7c1.2,0.1,2.4,0.2,3.7,0.3l0-0.3c-1-18.8,2.9-60.1,2.9-60.1s0.4,50.7,7.5,61
					c2.5,0.1,5,0.1,7.6,0.1v-97.1h-8.5c0,0-5.9,14.4-8.5,32.5C692.2,524.4,690.1,569.7,690.1,569.7z"/>
				<path class="st1" d="M684.3,407.3c0,0,13.4,1.9,27.5,1.9v-1.3c0,0-5.2-3.4-7-3.6C703.1,404.2,691.6,407.2,684.3,407.3z"/>
				<path class="st3" d="M696.7,509.6c0,0-4,41.3-2.9,60.1l0,0.3c3.5,0.3,7,0.5,10.5,0.6C697.1,560.3,696.7,509.6,696.7,509.6z"/>
				<path class="st3" d="M693.9,381.9c0,0,0.8,4.9,8.2,6.5c-1-1.9-1-3.6-1-3.6C696.8,384.9,695.2,383.6,693.9,381.9z"/>
				<path class="st3" d="M698.7,447.3c-0.2,0.1-1.5,1-3.7,2.4c4.8,1.5,10.3,2.3,16.8,2.3v-3.2C709.3,448.7,703.9,448.5,698.7,447.3z
					"/>
				<path class="st2" d="M711.8,416.8c-10.6,0-15.5-0.6-15.9-0.6c0.5,0.3,8.9,5.4,15.9,5.4V416.8z"/>
				<path class="st3" d="M702.1,388.3c1.2,2.2,3.9,4.5,9.7,4.5v-2.7c-6.8,0-10.7-5.4-10.7-5.4S701.1,386.4,702.1,388.3z"/>
			</g>
		</g>
	</g>
	<path class="st5" d="M686.2,408.3c3.5,1.6,2.5,4.5,9.5,4.5c7,0,14.3-1.1,14.3-1.1l17-1.9l10.5-2.1l-0.4-0.2c0,0-12.3,1.7-25.3,1.7
		s-27.2-1.9-27.2-1.9L686.2,408.3z"/>
	<path class="st3" d="M723.6,410.1c-2.9,0-6.8,0-10.8-0.1c-7.9-0.1-14.1-0.4-27.3-2.6c0,0-0.1,0-0.1,0h-0.7l1.4,0.9
		c3.5,1.6,2.5,4.5,9.5,4.5c7,0,14.3-1.1,14.3-1.1L723.6,410.1z"/>
	<path class="st5" d="M718.2,377.3c1.7-0.2,2.6,6.9,0.2,6.9C716,384.2,715.8,377.6,718.2,377.3z"/>
	<path class="st5" d="M725.6,411.5c1.6-1.8,5.9-0.7,4.2,0.5C728,413.2,724.3,413,725.6,411.5z"/>
	<g>
		<path class="st3" d="M716.5,397.7c2.2-2.3,6.5-1.5,11,0.6s13.5,5.4,13.1,6.4c-0.2,0.5-2.4,0.1-2.8,0.1c-2.1-0.1-4.1-0.4-6.1-0.7
			c-2.4-0.3-4.8-0.6-7.1-1.1c-1.9-0.3-4-0.6-5.8-1.3C717.6,401.1,715.1,399.1,716.5,397.7z"/>
		<path class="st3" d="M707.1,397.7c-2.2-2.3-6.5-1.5-11,0.6s-13.5,5.4-13.1,6.4c0.2,0.5,2.4,0.1,2.8,0.1c2.1-0.1,4.1-0.4,6.1-0.7
			c2.4-0.3,4.8-0.6,7.1-1.1c1.9-0.3,4-0.6,5.8-1.3C706.1,401.1,708.5,399.1,707.1,397.7z"/>
	</g>
	<path class="st3" d="M698.7,411.7c6.8,0.6,32.5-2.4,40.7-4.4c0,0-7.1,3-17.8,3.6c-10.6,0.6-24.3,3.8-24.3,3.8L698.7,411.7z"/>
	<path class="st3" d="M684.3,407.3c0,0,2.6,2.4,6,4.9l1.4-1l-6.2-3.7L684.3,407.3z"/>
	<path class="st1" d="M704.6,420.4c6.3-0.6,20.3-2.2,20.7-1.1s-8.4,4.8-13.2,4.8C707.3,424.2,704.6,420.4,704.6,420.4z"/>
	<g>
		<path class="st3" d="M735.3,407c0.8-0.4,3.9-0.3,4.5,0.2c0.6,0.5,3.5,3.9,1.7,4.1C740.7,411.5,735.3,407,735.3,407z"/>
		<path class="st3" d="M688.4,407c-0.8-0.4-3.9-0.3-4.5,0.2c-0.6,0.5-3.5,3.9-1.7,4.1C682.9,411.5,688.4,407,688.4,407z"/>
	</g>
	<g>
		<path class="st1" d="M698.8,412.9c-0.8,2.2-23.1,21.6-28.7,27v0c-1.4,1.4-2.3,2.2-2.3,2.2c-0.1,0-4.3,0-7.1-3.9
			c-2.9-3.9-1.1-5.9-1.1-5.9l1.5-1.1h0l31.7-23.7C696.1,406.4,699.8,410.1,698.8,412.9z"/>
		<path class="st5" d="M670.1,439.9L670.1,439.9c-1.4,1.4-2.3,2.2-2.3,2.2c-0.1,0-4.3,0-7.1-3.9c-2.7-3.7-1.3-5.6-1.1-5.9l0,0
			l1.5-1.1h0C664.3,430.5,669.9,436.6,670.1,439.9z"/>
		<path class="st0" d="M667.8,442.1c-0.1,0-4.3,0-7.1-3.9c-2.7-3.7-1.3-5.6-1.1-5.9l0,0c1-0.7,4.3,1,5.9,3.4
			C667.3,438.1,668.6,441,667.8,442.1z"/>
	</g>
	<path class="st3" d="M698.7,411.7l-28.6,23.9c0,0,0.8,1.2,0.6,2.5l28-24.8l0.9-1.6L698.7,411.7z"/>
	<polygon class="st4" points="664.6,430.3 692.6,409.2 667.3,431.6 	"/>
	<path class="st2" d="M807.9,503.3l-17.8-41.6c0,0,8.1,27.5,11.2,32.2C804.4,498.7,807.9,503.3,807.9,503.3z"/>
	<path class="st2" d="M601.2,448.7c0,0,13.3-21.9,15.1-24s-2.9,6.7-5.6,12.7C607.9,443.5,601.2,448.7,601.2,448.7z"/>
</g>
</svg>
